<svg width="32" height="32" viewBox="0 0 32 32" fill="none" xmlns="http://www.w3.org/2000/svg">
<circle cx="16" cy="16" r="16" fill="white"/>
<path d="M22.9583 22.7666C22.2833 23.575 21.3292 24.2041 20.0958 24.6541C18.8625 25.0958 17.4958 25.3166 15.9958 25.3166C14.4208 25.3166 13.0375 24.975 11.8458 24.2916C10.6625 23.6 9.74584 22.6 9.09584 21.2916C8.45417 19.9833 8.125 18.4458 8.10834 16.6791V15.4416C8.10834 13.625 8.4125 12.0541 9.02084 10.7291C9.6375 9.3958 10.5208 8.37914 11.6708 7.67914C12.8292 6.9708 14.1833 6.61664 15.7333 6.61664C17.8917 6.61664 19.5792 7.1333 20.7958 8.16664C22.0125 9.19164 22.7333 10.6875 22.9583 12.6541H19.3083C19.1417 11.6125 18.7708 10.85 18.1958 10.3666C17.6292 9.88331 16.8458 9.64164 15.8458 9.64164C14.5708 9.64164 13.6 10.1208 12.9333 11.0791C12.2667 12.0375 11.9292 13.4625 11.9208 15.3541V16.5166C11.9208 18.425 12.2833 19.8666 13.0083 20.8416C13.7333 21.8166 14.7958 22.3041 16.1958 22.3041C17.6042 22.3041 18.6083 22.0041 19.2083 21.4041V18.2666H15.7958V15.5041H22.9583V22.7666Z" fill="black"/>
</svg>
