<svg width="12" height="20" viewBox="0 0 12 20" fill="none" xmlns="http://www.w3.org/2000/svg">
<path d="M11.6624 1.66239C11.6624 1.82273 11.5816 2.00359 11.4623 2.12288L3.58517 10L11.4623 17.8771C11.5829 17.9977 11.6624 18.1773 11.6624 18.3376C11.6624 18.4979 11.5816 18.6788 11.4623 18.7981L10.4605 19.7999C10.3399 19.9205 10.1603 20 10 20C9.83966 20 9.6588 19.9192 9.53951 19.7999L0.200103 10.4605C0.079528 10.3399 0 10.1603 0 10C0 9.83966 0.0808107 9.6588 0.200103 9.53951L9.53951 0.200103C9.66008 0.0795282 9.83966 0 10 0C10.1603 0 10.3412 0.0808109 10.4605 0.200103L11.4623 1.2019C11.5829 1.32247 11.6624 1.48281 11.6624 1.66239Z" fill="black"/>
</svg>
