<svg width="12" height="20" viewBox="0 0 12 20" fill="none" xmlns="http://www.w3.org/2000/svg">
<path d="M11.6624 10C11.6624 10.1603 11.5816 10.3412 11.4623 10.4605L2.12288 19.7999C2.00231 19.9205 1.82273 20 1.66239 20C1.50205 20 1.32119 19.9192 1.2019 19.7999L0.200103 18.7981C0.079528 18.6775 0 18.5172 0 18.3376C0 18.1773 0.0808107 17.9964 0.200103 17.8771L8.07722 10L0.200103 2.12288C0.079528 2.00231 0 1.82273 0 1.66239C0 1.50205 0.0808107 1.32119 0.200103 1.2019L1.2019 0.200103C1.32247 0.0795281 1.50205 0 1.66239 0C1.82273 0 2.00359 0.0808108 2.12288 0.200103L11.4623 9.53951C11.5829 9.66008 11.6624 9.83966 11.6624 10V10Z" fill="black"/>
</svg>
