<svg width="14" height="14" viewBox="0 0 14 14" fill="none" xmlns="http://www.w3.org/2000/svg">
<path d="M13.5654 11.913L10.2492 9.09243C9.90619 8.78399 9.53956 8.64224 9.24337 8.6558C10.0261 7.7388 10.499 6.54924 10.499 5.24899C10.499 2.34968 8.14831 -0.00100708 5.249 -0.00100708C2.34969 -0.00100708 -0.000999928 2.34968 -0.000999928 5.24899C-0.000999928 8.14831 2.34969 10.499 5.249 10.499C6.54925 10.499 7.73881 10.0261 8.65581 9.24337C8.64225 9.53956 8.784 9.90618 9.09244 10.2492L11.913 13.5654C12.396 14.1018 13.1848 14.1473 13.6661 13.6661C14.1473 13.1848 14.1022 12.396 13.5654 11.913ZM5.24944 8.74943C3.31656 8.74943 1.74944 7.18231 1.74944 5.24943C1.74944 3.31656 3.31656 1.74943 5.24944 1.74943C7.18231 1.74943 8.74944 3.31656 8.74944 5.24943C8.74944 7.18231 7.18231 8.74943 5.24944 8.74943ZM6.12444 2.62443H4.37444V4.37443H2.62444V6.12443H4.37444V7.87443H6.12444V6.12443H7.87444V4.37443H6.12444V2.62443Z" fill="black"/>
</svg>
